<mxfile host="app.diagrams.net" agent="Mozilla/5.0 (Windows NT 10.0; Win64; x64) AppleWebKit/537.36 (KHTML, like Gecko) Chrome/128.0.0.0 Safari/537.36" version="24.7.8">
  <diagram name="Trang-1" id="Cjf59mMrRFcgfrY6k5yc">
    <mxGraphModel dx="1058" dy="1667" grid="1" gridSize="10" guides="1" tooltips="1" connect="1" arrows="1" fold="1" page="1" pageScale="1" pageWidth="827" pageHeight="1169" math="0" shadow="0">
      <root>
        <mxCell id="0" />
        <mxCell id="1" parent="0" />
        <mxCell id="nLk5Q_HTcDdQu3u07LqY-6" style="edgeStyle=orthogonalEdgeStyle;rounded=0;orthogonalLoop=1;jettySize=auto;html=1;entryX=0;entryY=0.5;entryDx=0;entryDy=0;" parent="1" source="nLk5Q_HTcDdQu3u07LqY-1" target="nLk5Q_HTcDdQu3u07LqY-4" edge="1">
          <mxGeometry relative="1" as="geometry">
            <Array as="points">
              <mxPoint x="85" y="160" />
              <mxPoint x="350" y="160" />
            </Array>
          </mxGeometry>
        </mxCell>
        <mxCell id="nLk5Q_HTcDdQu3u07LqY-17" style="edgeStyle=orthogonalEdgeStyle;rounded=0;orthogonalLoop=1;jettySize=auto;html=1;entryX=0;entryY=0.5;entryDx=0;entryDy=0;" parent="1" source="nLk5Q_HTcDdQu3u07LqY-1" target="nLk5Q_HTcDdQu3u07LqY-3" edge="1">
          <mxGeometry relative="1" as="geometry">
            <Array as="points">
              <mxPoint x="85" y="-105" />
            </Array>
          </mxGeometry>
        </mxCell>
        <mxCell id="nLk5Q_HTcDdQu3u07LqY-18" style="edgeStyle=orthogonalEdgeStyle;rounded=0;orthogonalLoop=1;jettySize=auto;html=1;entryX=0;entryY=0.5;entryDx=0;entryDy=0;" parent="1" source="nLk5Q_HTcDdQu3u07LqY-1" target="nLk5Q_HTcDdQu3u07LqY-14" edge="1">
          <mxGeometry relative="1" as="geometry" />
        </mxCell>
        <mxCell id="nLk5Q_HTcDdQu3u07LqY-19" style="edgeStyle=orthogonalEdgeStyle;rounded=0;orthogonalLoop=1;jettySize=auto;html=1;entryX=0;entryY=0.5;entryDx=0;entryDy=0;" parent="1" source="nLk5Q_HTcDdQu3u07LqY-1" target="nLk5Q_HTcDdQu3u07LqY-15" edge="1">
          <mxGeometry relative="1" as="geometry" />
        </mxCell>
        <mxCell id="nLk5Q_HTcDdQu3u07LqY-20" style="edgeStyle=orthogonalEdgeStyle;rounded=0;orthogonalLoop=1;jettySize=auto;html=1;entryX=0;entryY=0.5;entryDx=0;entryDy=0;" parent="1" source="nLk5Q_HTcDdQu3u07LqY-1" target="nLk5Q_HTcDdQu3u07LqY-16" edge="1">
          <mxGeometry relative="1" as="geometry" />
        </mxCell>
        <mxCell id="nLk5Q_HTcDdQu3u07LqY-32" style="edgeStyle=orthogonalEdgeStyle;rounded=0;orthogonalLoop=1;jettySize=auto;html=1;entryX=0;entryY=0.5;entryDx=0;entryDy=0;" parent="1" source="nLk5Q_HTcDdQu3u07LqY-1" target="nLk5Q_HTcDdQu3u07LqY-31" edge="1">
          <mxGeometry relative="1" as="geometry" />
        </mxCell>
        <mxCell id="nLk5Q_HTcDdQu3u07LqY-49" style="edgeStyle=orthogonalEdgeStyle;rounded=0;orthogonalLoop=1;jettySize=auto;html=1;entryX=0;entryY=0.5;entryDx=0;entryDy=0;" parent="1" source="nLk5Q_HTcDdQu3u07LqY-1" target="nLk5Q_HTcDdQu3u07LqY-46" edge="1">
          <mxGeometry relative="1" as="geometry" />
        </mxCell>
        <mxCell id="nLk5Q_HTcDdQu3u07LqY-1" value="LEADER" style="shape=umlActor;verticalLabelPosition=bottom;verticalAlign=top;html=1;outlineConnect=0;fontStyle=1" parent="1" vertex="1">
          <mxGeometry x="70" y="580" width="30" height="60" as="geometry" />
        </mxCell>
        <mxCell id="nLk5Q_HTcDdQu3u07LqY-7" style="edgeStyle=orthogonalEdgeStyle;rounded=0;orthogonalLoop=1;jettySize=auto;html=1;entryX=1;entryY=0.5;entryDx=0;entryDy=0;" parent="1" source="nLk5Q_HTcDdQu3u07LqY-2" target="nLk5Q_HTcDdQu3u07LqY-3" edge="1">
          <mxGeometry relative="1" as="geometry">
            <Array as="points">
              <mxPoint x="775" y="-105" />
            </Array>
          </mxGeometry>
        </mxCell>
        <mxCell id="nLk5Q_HTcDdQu3u07LqY-8" style="edgeStyle=orthogonalEdgeStyle;rounded=0;orthogonalLoop=1;jettySize=auto;html=1;entryX=1;entryY=0.5;entryDx=0;entryDy=0;" parent="1" source="nLk5Q_HTcDdQu3u07LqY-2" target="nLk5Q_HTcDdQu3u07LqY-4" edge="1">
          <mxGeometry relative="1" as="geometry">
            <Array as="points">
              <mxPoint x="775" y="160" />
              <mxPoint x="440" y="160" />
            </Array>
          </mxGeometry>
        </mxCell>
        <mxCell id="nLk5Q_HTcDdQu3u07LqY-37" style="edgeStyle=orthogonalEdgeStyle;rounded=0;orthogonalLoop=1;jettySize=auto;html=1;entryX=1;entryY=0.5;entryDx=0;entryDy=0;" parent="1" source="nLk5Q_HTcDdQu3u07LqY-2" target="nLk5Q_HTcDdQu3u07LqY-35" edge="1">
          <mxGeometry relative="1" as="geometry">
            <Array as="points">
              <mxPoint x="775" y="245" />
            </Array>
          </mxGeometry>
        </mxCell>
        <mxCell id="nLk5Q_HTcDdQu3u07LqY-38" style="edgeStyle=orthogonalEdgeStyle;rounded=0;orthogonalLoop=1;jettySize=auto;html=1;" parent="1" source="nLk5Q_HTcDdQu3u07LqY-2" target="nLk5Q_HTcDdQu3u07LqY-36" edge="1">
          <mxGeometry relative="1" as="geometry">
            <Array as="points">
              <mxPoint x="775" y="325" />
            </Array>
          </mxGeometry>
        </mxCell>
        <mxCell id="nLk5Q_HTcDdQu3u07LqY-43" style="edgeStyle=orthogonalEdgeStyle;rounded=0;orthogonalLoop=1;jettySize=auto;html=1;entryX=1;entryY=0.5;entryDx=0;entryDy=0;" parent="1" source="nLk5Q_HTcDdQu3u07LqY-2" target="nLk5Q_HTcDdQu3u07LqY-42" edge="1">
          <mxGeometry relative="1" as="geometry">
            <Array as="points">
              <mxPoint x="775" y="475" />
            </Array>
          </mxGeometry>
        </mxCell>
        <mxCell id="nLk5Q_HTcDdQu3u07LqY-2" value="MEMBERS" style="shape=umlActor;verticalLabelPosition=bottom;verticalAlign=top;html=1;outlineConnect=0;fontStyle=1" parent="1" vertex="1">
          <mxGeometry x="760" y="580" width="30" height="60" as="geometry" />
        </mxCell>
        <mxCell id="nLk5Q_HTcDdQu3u07LqY-10" style="edgeStyle=orthogonalEdgeStyle;rounded=0;orthogonalLoop=1;jettySize=auto;html=1;entryX=0.5;entryY=0;entryDx=0;entryDy=0;" parent="1" source="nLk5Q_HTcDdQu3u07LqY-3" target="nLk5Q_HTcDdQu3u07LqY-4" edge="1">
          <mxGeometry relative="1" as="geometry">
            <Array as="points">
              <mxPoint x="395" y="60" />
              <mxPoint x="395" y="60" />
            </Array>
          </mxGeometry>
        </mxCell>
        <mxCell id="nLk5Q_HTcDdQu3u07LqY-3" value="&lt;b&gt;ĐĂNG KÝ&lt;/b&gt;" style="ellipse;whiteSpace=wrap;html=1;" parent="1" vertex="1">
          <mxGeometry x="350" y="-130" width="90" height="50" as="geometry" />
        </mxCell>
        <mxCell id="nLk5Q_HTcDdQu3u07LqY-24" style="edgeStyle=orthogonalEdgeStyle;rounded=0;orthogonalLoop=1;jettySize=auto;html=1;" parent="1" source="nLk5Q_HTcDdQu3u07LqY-4" target="nLk5Q_HTcDdQu3u07LqY-12" edge="1">
          <mxGeometry relative="1" as="geometry" />
        </mxCell>
        <mxCell id="ty7zwHUonPKPELbw-AoR-5" style="edgeStyle=orthogonalEdgeStyle;rounded=0;orthogonalLoop=1;jettySize=auto;html=1;exitX=1;exitY=0;exitDx=0;exitDy=0;entryX=0.5;entryY=1;entryDx=0;entryDy=0;" edge="1" parent="1" source="nLk5Q_HTcDdQu3u07LqY-4" target="ty7zwHUonPKPELbw-AoR-6">
          <mxGeometry relative="1" as="geometry">
            <mxPoint x="500" y="50" as="targetPoint" />
          </mxGeometry>
        </mxCell>
        <mxCell id="nLk5Q_HTcDdQu3u07LqY-4" value="&lt;b&gt;ĐĂNG NHẬP&lt;/b&gt;" style="ellipse;whiteSpace=wrap;html=1;" parent="1" vertex="1">
          <mxGeometry x="350" y="140" width="90" height="50" as="geometry" />
        </mxCell>
        <mxCell id="nLk5Q_HTcDdQu3u07LqY-12" value="&lt;b&gt;CÔNG VIỆC&lt;/b&gt;" style="rounded=0;whiteSpace=wrap;html=1;" parent="1" vertex="1">
          <mxGeometry x="345" y="300" width="100" height="50" as="geometry" />
        </mxCell>
        <mxCell id="nLk5Q_HTcDdQu3u07LqY-21" style="edgeStyle=orthogonalEdgeStyle;rounded=0;orthogonalLoop=1;jettySize=auto;html=1;entryX=0.25;entryY=0;entryDx=0;entryDy=0;" parent="1" source="nLk5Q_HTcDdQu3u07LqY-14" target="nLk5Q_HTcDdQu3u07LqY-12" edge="1">
          <mxGeometry relative="1" as="geometry" />
        </mxCell>
        <mxCell id="nLk5Q_HTcDdQu3u07LqY-14" value="&lt;b&gt;TẠO&lt;/b&gt;" style="ellipse;whiteSpace=wrap;html=1;" parent="1" vertex="1">
          <mxGeometry x="210" y="230" width="90" height="50" as="geometry" />
        </mxCell>
        <mxCell id="nLk5Q_HTcDdQu3u07LqY-22" style="edgeStyle=orthogonalEdgeStyle;rounded=0;orthogonalLoop=1;jettySize=auto;html=1;entryX=0;entryY=0.5;entryDx=0;entryDy=0;" parent="1" source="nLk5Q_HTcDdQu3u07LqY-15" target="nLk5Q_HTcDdQu3u07LqY-12" edge="1">
          <mxGeometry relative="1" as="geometry" />
        </mxCell>
        <mxCell id="nLk5Q_HTcDdQu3u07LqY-15" value="&lt;b&gt;CHỈNH SỬA&lt;/b&gt;" style="ellipse;whiteSpace=wrap;html=1;" parent="1" vertex="1">
          <mxGeometry x="210" y="290" width="90" height="50" as="geometry" />
        </mxCell>
        <mxCell id="nLk5Q_HTcDdQu3u07LqY-23" style="edgeStyle=orthogonalEdgeStyle;rounded=0;orthogonalLoop=1;jettySize=auto;html=1;entryX=0.25;entryY=1;entryDx=0;entryDy=0;" parent="1" source="nLk5Q_HTcDdQu3u07LqY-16" target="nLk5Q_HTcDdQu3u07LqY-12" edge="1">
          <mxGeometry relative="1" as="geometry" />
        </mxCell>
        <mxCell id="nLk5Q_HTcDdQu3u07LqY-16" value="XÓA" style="ellipse;whiteSpace=wrap;html=1;fontStyle=1" parent="1" vertex="1">
          <mxGeometry x="210" y="350" width="90" height="50" as="geometry" />
        </mxCell>
        <mxCell id="nLk5Q_HTcDdQu3u07LqY-25" value="CÔNG VIỆC CON&lt;div&gt;(nếu có)&lt;/div&gt;" style="rounded=0;whiteSpace=wrap;html=1;fontStyle=1" parent="1" vertex="1">
          <mxGeometry x="470" y="300" width="70" height="50" as="geometry" />
        </mxCell>
        <mxCell id="nLk5Q_HTcDdQu3u07LqY-27" value="TRẠNG THÁI CÔNG VIỆC" style="ellipse;whiteSpace=wrap;html=1;aspect=fixed;fontStyle=1" parent="1" vertex="1">
          <mxGeometry x="360" y="440" width="70" height="70" as="geometry" />
        </mxCell>
        <mxCell id="nLk5Q_HTcDdQu3u07LqY-30" value="" style="endArrow=none;html=1;rounded=0;entryX=0.5;entryY=1;entryDx=0;entryDy=0;exitX=0.5;exitY=0;exitDx=0;exitDy=0;" parent="1" source="nLk5Q_HTcDdQu3u07LqY-27" target="nLk5Q_HTcDdQu3u07LqY-12" edge="1">
          <mxGeometry width="50" height="50" relative="1" as="geometry">
            <mxPoint x="390" y="420" as="sourcePoint" />
            <mxPoint x="440" y="370" as="targetPoint" />
          </mxGeometry>
        </mxCell>
        <mxCell id="nLk5Q_HTcDdQu3u07LqY-33" style="edgeStyle=orthogonalEdgeStyle;rounded=0;orthogonalLoop=1;jettySize=auto;html=1;entryX=0;entryY=0.5;entryDx=0;entryDy=0;" parent="1" source="nLk5Q_HTcDdQu3u07LqY-31" target="nLk5Q_HTcDdQu3u07LqY-27" edge="1">
          <mxGeometry relative="1" as="geometry" />
        </mxCell>
        <mxCell id="nLk5Q_HTcDdQu3u07LqY-31" value="&lt;b&gt;QUẢN LÝ&lt;/b&gt;" style="ellipse;whiteSpace=wrap;html=1;fontStyle=0" parent="1" vertex="1">
          <mxGeometry x="210" y="450" width="90" height="50" as="geometry" />
        </mxCell>
        <mxCell id="nLk5Q_HTcDdQu3u07LqY-39" style="edgeStyle=orthogonalEdgeStyle;rounded=0;orthogonalLoop=1;jettySize=auto;html=1;entryX=0.75;entryY=0;entryDx=0;entryDy=0;" parent="1" source="nLk5Q_HTcDdQu3u07LqY-35" target="nLk5Q_HTcDdQu3u07LqY-12" edge="1">
          <mxGeometry relative="1" as="geometry" />
        </mxCell>
        <mxCell id="nLk5Q_HTcDdQu3u07LqY-35" value="XEM" style="ellipse;whiteSpace=wrap;html=1;fontStyle=1" parent="1" vertex="1">
          <mxGeometry x="620" y="220" width="90" height="50" as="geometry" />
        </mxCell>
        <mxCell id="nLk5Q_HTcDdQu3u07LqY-40" style="edgeStyle=orthogonalEdgeStyle;rounded=0;orthogonalLoop=1;jettySize=auto;html=1;entryX=1;entryY=0.5;entryDx=0;entryDy=0;" parent="1" source="nLk5Q_HTcDdQu3u07LqY-36" target="nLk5Q_HTcDdQu3u07LqY-25" edge="1">
          <mxGeometry relative="1" as="geometry" />
        </mxCell>
        <mxCell id="nLk5Q_HTcDdQu3u07LqY-36" value="THAM GIA" style="ellipse;whiteSpace=wrap;html=1;fontStyle=1" parent="1" vertex="1">
          <mxGeometry x="620" y="300" width="90" height="50" as="geometry" />
        </mxCell>
        <mxCell id="nLk5Q_HTcDdQu3u07LqY-44" style="edgeStyle=orthogonalEdgeStyle;rounded=0;orthogonalLoop=1;jettySize=auto;html=1;entryX=1;entryY=0.5;entryDx=0;entryDy=0;" parent="1" source="nLk5Q_HTcDdQu3u07LqY-42" target="nLk5Q_HTcDdQu3u07LqY-27" edge="1">
          <mxGeometry relative="1" as="geometry" />
        </mxCell>
        <mxCell id="nLk5Q_HTcDdQu3u07LqY-42" value="CẬP NHẬT TRẠNG THÁI CÔNG VIỆC" style="ellipse;whiteSpace=wrap;html=1;fontStyle=1" parent="1" vertex="1">
          <mxGeometry x="520" y="445" width="100" height="60" as="geometry" />
        </mxCell>
        <mxCell id="nLk5Q_HTcDdQu3u07LqY-51" style="edgeStyle=orthogonalEdgeStyle;rounded=0;orthogonalLoop=1;jettySize=auto;html=1;entryX=0.5;entryY=1;entryDx=0;entryDy=0;" parent="1" source="nLk5Q_HTcDdQu3u07LqY-46" target="nLk5Q_HTcDdQu3u07LqY-25" edge="1">
          <mxGeometry relative="1" as="geometry" />
        </mxCell>
        <mxCell id="nLk5Q_HTcDdQu3u07LqY-46" value="&lt;b&gt;CHỈ ĐỊNH CÔNG VIỆC&lt;/b&gt;" style="ellipse;whiteSpace=wrap;html=1;fontStyle=0" parent="1" vertex="1">
          <mxGeometry x="460" y="585" width="90" height="50" as="geometry" />
        </mxCell>
        <mxCell id="nLk5Q_HTcDdQu3u07LqY-48" value="" style="endArrow=none;html=1;rounded=0;exitX=1;exitY=0.5;exitDx=0;exitDy=0;" parent="1" source="nLk5Q_HTcDdQu3u07LqY-46" target="nLk5Q_HTcDdQu3u07LqY-2" edge="1">
          <mxGeometry width="50" height="50" relative="1" as="geometry">
            <mxPoint x="390" y="520" as="sourcePoint" />
            <mxPoint x="440" y="470" as="targetPoint" />
            <Array as="points" />
          </mxGeometry>
        </mxCell>
        <mxCell id="nLk5Q_HTcDdQu3u07LqY-52" value="" style="endArrow=none;html=1;rounded=0;entryX=0;entryY=0.5;entryDx=0;entryDy=0;exitX=1;exitY=0.5;exitDx=0;exitDy=0;" parent="1" source="nLk5Q_HTcDdQu3u07LqY-12" target="nLk5Q_HTcDdQu3u07LqY-25" edge="1">
          <mxGeometry width="50" height="50" relative="1" as="geometry">
            <mxPoint x="390" y="520" as="sourcePoint" />
            <mxPoint x="440" y="470" as="targetPoint" />
          </mxGeometry>
        </mxCell>
        <mxCell id="nLk5Q_HTcDdQu3u07LqY-53" value="" style="endArrow=none;dashed=1;html=1;rounded=0;" parent="1" edge="1">
          <mxGeometry width="50" height="50" relative="1" as="geometry">
            <mxPoint x="140" y="200" as="sourcePoint" />
            <mxPoint x="750" y="200" as="targetPoint" />
          </mxGeometry>
        </mxCell>
        <mxCell id="nLk5Q_HTcDdQu3u07LqY-54" value="" style="endArrow=none;dashed=1;html=1;rounded=0;" parent="1" edge="1">
          <mxGeometry width="50" height="50" relative="1" as="geometry">
            <mxPoint x="750" y="640" as="sourcePoint" />
            <mxPoint x="750" y="200" as="targetPoint" />
          </mxGeometry>
        </mxCell>
        <mxCell id="nLk5Q_HTcDdQu3u07LqY-55" value="" style="endArrow=none;dashed=1;html=1;rounded=0;" parent="1" edge="1">
          <mxGeometry width="50" height="50" relative="1" as="geometry">
            <mxPoint x="140" y="200" as="sourcePoint" />
            <mxPoint x="140" y="640" as="targetPoint" />
          </mxGeometry>
        </mxCell>
        <mxCell id="nLk5Q_HTcDdQu3u07LqY-56" value="" style="endArrow=none;dashed=1;html=1;rounded=0;" parent="1" edge="1">
          <mxGeometry width="50" height="50" relative="1" as="geometry">
            <mxPoint x="140" y="640" as="sourcePoint" />
            <mxPoint x="750" y="640" as="targetPoint" />
          </mxGeometry>
        </mxCell>
        <mxCell id="ty7zwHUonPKPELbw-AoR-9" style="edgeStyle=orthogonalEdgeStyle;rounded=0;orthogonalLoop=1;jettySize=auto;html=1;exitX=0.75;exitY=0;exitDx=0;exitDy=0;entryX=0;entryY=0.5;entryDx=0;entryDy=0;" edge="1" parent="1" source="ty7zwHUonPKPELbw-AoR-6" target="ty7zwHUonPKPELbw-AoR-7">
          <mxGeometry relative="1" as="geometry">
            <Array as="points">
              <mxPoint x="480" y="20" />
              <mxPoint x="480" y="-35" />
            </Array>
          </mxGeometry>
        </mxCell>
        <mxCell id="ty7zwHUonPKPELbw-AoR-11" style="edgeStyle=orthogonalEdgeStyle;rounded=0;orthogonalLoop=1;jettySize=auto;html=1;exitX=1;exitY=0.5;exitDx=0;exitDy=0;entryX=0;entryY=0.5;entryDx=0;entryDy=0;" edge="1" parent="1" source="ty7zwHUonPKPELbw-AoR-6" target="ty7zwHUonPKPELbw-AoR-10">
          <mxGeometry relative="1" as="geometry" />
        </mxCell>
        <mxCell id="ty7zwHUonPKPELbw-AoR-6" value="&lt;b&gt;TÀI KHOẢN&lt;/b&gt;" style="rounded=0;whiteSpace=wrap;html=1;" vertex="1" parent="1">
          <mxGeometry x="430" y="20" width="100" height="50" as="geometry" />
        </mxCell>
        <mxCell id="ty7zwHUonPKPELbw-AoR-7" value="THÔNG TIN TÀI KHOẢN" style="ellipse;whiteSpace=wrap;html=1;fontStyle=1" vertex="1" parent="1">
          <mxGeometry x="525" y="-60" width="90" height="50" as="geometry" />
        </mxCell>
        <mxCell id="ty7zwHUonPKPELbw-AoR-10" value="ĐĂNG XUẤT" style="ellipse;whiteSpace=wrap;html=1;fontStyle=1" vertex="1" parent="1">
          <mxGeometry x="580" y="20" width="90" height="50" as="geometry" />
        </mxCell>
        <mxCell id="ty7zwHUonPKPELbw-AoR-13" value="" style="endArrow=classic;html=1;rounded=0;entryX=0;entryY=0.5;entryDx=0;entryDy=0;" edge="1" parent="1" target="ty7zwHUonPKPELbw-AoR-14">
          <mxGeometry width="50" height="50" relative="1" as="geometry">
            <mxPoint x="160" y="160" as="sourcePoint" />
            <mxPoint x="160" y="120" as="targetPoint" />
            <Array as="points">
              <mxPoint x="160" y="95" />
            </Array>
          </mxGeometry>
        </mxCell>
        <mxCell id="ty7zwHUonPKPELbw-AoR-16" style="edgeStyle=orthogonalEdgeStyle;rounded=0;orthogonalLoop=1;jettySize=auto;html=1;exitX=0.5;exitY=1;exitDx=0;exitDy=0;entryX=0.5;entryY=1;entryDx=0;entryDy=0;" edge="1" parent="1" source="ty7zwHUonPKPELbw-AoR-14" target="nLk5Q_HTcDdQu3u07LqY-4">
          <mxGeometry relative="1" as="geometry">
            <Array as="points">
              <mxPoint x="275" y="190" />
            </Array>
          </mxGeometry>
        </mxCell>
        <mxCell id="ty7zwHUonPKPELbw-AoR-14" value="&lt;b&gt;QUÊN MẬT KHẨU&lt;/b&gt;" style="ellipse;whiteSpace=wrap;html=1;" vertex="1" parent="1">
          <mxGeometry x="230" y="70" width="90" height="50" as="geometry" />
        </mxCell>
        <mxCell id="ty7zwHUonPKPELbw-AoR-15" value="" style="endArrow=classic;html=1;rounded=0;entryX=1;entryY=0.5;entryDx=0;entryDy=0;" edge="1" parent="1" target="ty7zwHUonPKPELbw-AoR-14">
          <mxGeometry width="50" height="50" relative="1" as="geometry">
            <mxPoint x="600" y="160" as="sourcePoint" />
            <mxPoint x="390" y="70" as="targetPoint" />
            <Array as="points">
              <mxPoint x="600" y="95" />
            </Array>
          </mxGeometry>
        </mxCell>
      </root>
    </mxGraphModel>
  </diagram>
</mxfile>
